<svg width="24" height="24" viewBox="0 0 24 24" fill="none" xmlns="http://www.w3.org/2000/svg">
<path fill-rule="evenodd" clip-rule="evenodd" d="M10.6759 12.0896L10.6774 12.434C10.6892 13.8001 10.7716 15.019 10.9136 15.7914C10.9136 15.8053 11.0686 16.5714 11.1672 16.8263C11.3221 17.195 11.6023 17.5078 11.9535 17.706C12.2347 17.8475 12.5296 17.9192 12.8385 17.9192C13.0811 17.908 13.4815 17.7859 13.7672 17.6835L14.0046 17.5924C15.5771 16.9678 18.5832 14.9267 19.7345 13.6785L19.8194 13.5913L20.1981 13.1825C20.4369 12.8696 20.5632 12.4871 20.5632 12.0757C20.5632 11.7071 20.4508 11.3385 20.2258 11.0406C20.1585 10.9441 20.0499 10.8203 19.9534 10.7158L19.5847 10.3298C18.3158 9.04423 15.5687 7.24099 14.1447 6.6435C14.1447 6.63065 13.2597 6.261 12.8385 6.24707H12.7822C12.136 6.24707 11.5322 6.61564 11.2234 7.21136C11.1391 7.37421 11.0582 7.69323 10.9967 7.97341L10.886 8.50244C10.7597 9.35315 10.6759 10.6582 10.6759 12.0896ZM4.51711 10.6063C3.70962 10.6063 3.05493 11.2674 3.05493 12.0828C3.05493 12.8981 3.70962 13.5592 4.51711 13.5592L8.11529 13.2409C8.74877 13.2409 9.26233 12.7235 9.26233 12.0828C9.26233 11.443 8.74877 10.9245 8.11529 10.9245L4.51711 10.6063Z" fill="white"/>
</svg>
