<svg width="40" height="40" viewBox="0 0 40 40" fill="none" xmlns="http://www.w3.org/2000/svg">
<path fill-rule="evenodd" clip-rule="evenodd" d="M0.858643 19.7666C0.858643 9.02908 9.59025 0.301697 20.3123 0.301697C31.0343 0.301697 39.7659 9.02908 39.7659 19.7666C39.7659 30.4815 31.0343 39.209 20.3123 39.209C9.59025 39.209 0.858643 30.4815 0.858643 19.7666ZM27.4479 21.7353C27.6543 21.5289 27.9173 21.2099 27.9735 21.1348C28.2741 20.7407 28.4242 20.2528 28.4242 19.7666C28.4242 19.2204 28.2552 18.7136 27.936 18.3008C27.9099 18.2745 27.8585 18.2189 27.7918 18.1461C27.6669 18.0103 27.4877 17.815 27.3164 17.6438C25.7766 15.9922 21.7581 13.2895 19.6551 12.4637C19.3359 12.3342 18.5284 12.0508 18.0965 12.0321C17.6833 12.0321 17.289 12.1259 16.9135 12.3136C16.4441 12.5764 16.0685 12.9893 15.862 13.4772C15.7305 13.8151 15.524 14.8286 15.524 14.8473C15.3174 15.9547 15.2048 17.7565 15.2048 19.746C15.2048 21.6435 15.3174 23.3683 15.4864 24.4944C15.4911 24.4991 15.5072 24.5796 15.5323 24.7047C15.6086 25.085 15.7675 25.8776 15.9371 26.2023C16.3502 26.9905 17.1577 27.4786 18.0214 27.4786H18.0965C18.6599 27.4597 19.8429 26.9718 19.8429 26.9532C21.8334 26.1272 25.7577 23.556 27.335 21.848L27.4479 21.7353Z" fill="#FF2626"/>
</svg>
