<svg width="20" height="20" viewBox="0 0 20 20" fill="none" xmlns="http://www.w3.org/2000/svg">
<g clip-path="url(#clip0_1_8665)">
<path fill-rule="evenodd" clip-rule="evenodd" d="M6.18132 17.3673C6.44097 17.3673 6.65058 17.5778 6.65058 17.8366C6.65058 18.0962 6.44097 18.3067 6.18132 18.3067C5.92167 18.3067 5.71206 18.0962 5.71206 17.8366C5.71206 17.5778 5.92167 17.3673 6.18132 17.3673Z" fill="white"/>
<path fill-rule="evenodd" clip-rule="evenodd" d="M15.9118 17.3673C16.1714 17.3673 16.3819 17.5778 16.3819 17.8366C16.3819 18.0962 16.1714 18.3067 15.9118 18.3067C15.6521 18.3067 15.4425 18.0962 15.4425 17.8366C15.4425 17.5778 15.6521 17.3673 15.9118 17.3673Z" fill="white"/>
<path d="M2.38208 2.74377L4.17631 3.05431L5.00701 12.9511C5.07343 13.7593 5.74885 14.3796 6.55971 14.377H15.9699C16.7437 14.3787 17.4001 13.8094 17.5097 13.0434L18.3283 7.38635C18.4197 6.75405 17.9807 6.16748 17.3492 6.07604C17.294 6.06828 4.46442 6.06396 4.46442 6.06396M12.1943 9.25211H14.5863M6.18132 17.3673C6.44097 17.3673 6.65058 17.5778 6.65058 17.8366C6.65058 18.0962 6.44097 18.3067 6.18132 18.3067C5.92167 18.3067 5.71206 18.0962 5.71206 17.8366C5.71206 17.5778 5.92167 17.3673 6.18132 17.3673ZM15.9118 17.3673C16.1714 17.3673 16.3819 17.5778 16.3819 17.8366C16.3819 18.0962 16.1714 18.3067 15.9118 18.3067C15.6521 18.3067 15.4425 18.0962 15.4425 17.8366C15.4425 17.5778 15.6521 17.3673 15.9118 17.3673Z" stroke="white" stroke-width="1.45902" stroke-linecap="round" stroke-linejoin="round"/>
</g>
<defs>
<clipPath id="clip0_1_8665">
<rect width="19.4536" height="19.4536" fill="white" transform="translate(0.163452 0.525269)"/>
</clipPath>
</defs>
</svg>
