<svg width="130" height="48" viewBox="0 0 130 48" fill="none" xmlns="http://www.w3.org/2000/svg">
<rect x="0.31543" y="0.907471" width="46.6887" height="46.6887" rx="3.89073" fill="#FF2626"/>
<path d="M23.7776 15.1026C23.808 15.2812 24.3894 18.6932 24.3894 19.9964C24.3894 21.9835 23.3331 23.4008 21.7715 23.9707L22.2616 33.0174C22.2882 33.5379 21.8741 33.9787 21.3497 33.9787H18.918C18.3975 33.9787 17.9796 33.5417 18.0062 33.0174L18.4963 23.9707C16.9309 23.4008 15.8784 21.9797 15.8784 19.9964C15.8784 18.6894 16.4597 15.2812 16.4901 15.1026C16.6117 14.3313 18.2113 14.3199 18.3101 15.1444V20.5093C18.3595 20.6385 18.8838 20.6309 18.918 20.5093C18.9712 19.5481 19.2182 15.2204 19.222 15.1216C19.3474 14.3313 20.9204 14.3313 21.042 15.1216C21.0496 15.2242 21.2927 19.5481 21.3459 20.5093C21.3801 20.6309 21.9083 20.6385 21.9539 20.5093V15.1444C22.0526 14.3237 23.656 14.3313 23.7776 15.1026ZM28.3067 25.9579L27.7367 32.9908C27.6911 33.5227 28.1129 33.9787 28.6448 33.9787H30.7726C31.2779 33.9787 31.6844 33.5721 31.6844 33.0668V15.437C31.6844 14.9354 31.2779 14.5251 30.7726 14.5251C27.638 14.5251 22.3604 21.3072 28.3067 25.9579Z" fill="white"/>
<path d="M70.3486 18.3889V20.1475H65.8198V22.9333H69.2903V24.6608H65.8198V29.2518H63.641V18.3889H70.3486ZM75.722 29.3919C74.892 29.3919 74.145 29.2103 73.481 28.8472C72.817 28.4737 72.293 27.9497 71.9091 27.2753C71.5356 26.6009 71.3489 25.8228 71.3489 24.9409C71.3489 24.059 71.5408 23.2809 71.9247 22.6065C72.319 21.9321 72.8533 21.4133 73.5277 21.0502C74.2021 20.6767 74.9543 20.4899 75.7843 20.4899C76.6143 20.4899 77.3665 20.6767 78.0409 21.0502C78.7153 21.4133 79.2445 21.9321 79.6283 22.6065C80.0226 23.2809 80.2197 24.059 80.2197 24.9409C80.2197 25.8228 80.0174 26.6009 79.6128 27.2753C79.2185 27.9497 78.679 28.4737 77.9942 28.8472C77.3198 29.2103 76.5624 29.3919 75.722 29.3919ZM75.722 27.4932C76.1163 27.4932 76.4846 27.3998 76.827 27.2131C77.1798 27.016 77.4599 26.7255 77.6674 26.3416C77.8749 25.9577 77.9787 25.4908 77.9787 24.9409C77.9787 24.1213 77.7608 23.4936 77.325 23.0578C76.8996 22.6117 76.3757 22.3886 75.7532 22.3886C75.1307 22.3886 74.6067 22.6117 74.1813 23.0578C73.7663 23.4936 73.5588 24.1213 73.5588 24.9409C73.5588 25.7606 73.7611 26.3934 74.1658 26.8396C74.5808 27.2753 75.0995 27.4932 75.722 27.4932ZM85.6464 29.3919C84.8164 29.3919 84.0694 29.2103 83.4054 28.8472C82.7414 28.4737 82.2174 27.9497 81.8335 27.2753C81.46 26.6009 81.2733 25.8228 81.2733 24.9409C81.2733 24.059 81.4652 23.2809 81.8491 22.6065C82.2433 21.9321 82.7777 21.4133 83.4521 21.0502C84.1265 20.6767 84.8787 20.4899 85.7087 20.4899C86.5387 20.4899 87.2909 20.6767 87.9653 21.0502C88.6397 21.4133 89.1688 21.9321 89.5527 22.6065C89.947 23.2809 90.1441 24.059 90.1441 24.9409C90.1441 25.8228 89.9418 26.6009 89.5372 27.2753C89.1429 27.9497 88.6034 28.4737 87.9186 28.8472C87.2442 29.2103 86.4868 29.3919 85.6464 29.3919ZM85.6464 27.4932C86.0407 27.4932 86.409 27.3998 86.7514 27.2131C87.1042 27.016 87.3843 26.7255 87.5918 26.3416C87.7993 25.9577 87.9031 25.4908 87.9031 24.9409C87.9031 24.1213 87.6852 23.4936 87.2494 23.0578C86.824 22.6117 86.3001 22.3886 85.6776 22.3886C85.055 22.3886 84.5311 22.6117 84.1057 23.0578C83.6907 23.4936 83.4832 24.1213 83.4832 24.9409C83.4832 25.7606 83.6855 26.3934 84.0901 26.8396C84.5052 27.2753 85.0239 27.4932 85.6464 27.4932ZM91.1821 24.9098C91.1821 24.0383 91.3533 23.2653 91.6957 22.5909C92.0484 21.9165 92.5257 21.3978 93.1275 21.0346C93.7292 20.6715 94.3984 20.4899 95.1351 20.4899C95.6953 20.4899 96.2297 20.6144 96.738 20.8634C97.2464 21.1021 97.6511 21.4237 97.952 21.8283V17.7353H100.162V29.2518H97.952V27.9757C97.6822 28.4011 97.3035 28.7434 96.8159 29.0028C96.3282 29.2622 95.7628 29.3919 95.1195 29.3919C94.3932 29.3919 93.7292 29.2051 93.1275 28.8316C92.5257 28.4581 92.0484 27.9342 91.6957 27.2598C91.3533 26.575 91.1821 25.7917 91.1821 24.9098ZM97.9675 24.9409C97.9675 24.4118 97.8638 23.9604 97.6563 23.5869C97.4488 23.203 97.1686 22.9125 96.8159 22.7154C96.4631 22.5079 96.0844 22.4042 95.6798 22.4042C95.2751 22.4042 94.9016 22.5027 94.5592 22.6998C94.2169 22.897 93.9367 23.1875 93.7188 23.5714C93.5113 23.9449 93.4076 24.391 93.4076 24.9098C93.4076 25.4285 93.5113 25.8851 93.7188 26.2793C93.9367 26.6632 94.2169 26.9589 94.5592 27.1664C94.912 27.3739 95.2855 27.4777 95.6798 27.4777C96.0844 27.4777 96.4631 27.3791 96.8159 27.182C97.1686 26.9745 97.4488 26.684 97.6563 26.3104C97.8638 25.9266 97.9675 25.47 97.9675 24.9409Z" fill="#171717"/>
<path d="M108.453 23.6803C109.065 23.7944 109.568 24.1005 109.962 24.5985C110.357 25.0965 110.554 25.6672 110.554 26.3104C110.554 26.8915 110.409 27.405 110.118 27.8512C109.838 28.2869 109.428 28.6293 108.889 28.8783C108.349 29.1273 107.711 29.2518 106.974 29.2518H102.29V18.3889H106.772C107.509 18.3889 108.142 18.5082 108.671 18.7469C109.21 18.9855 109.615 19.3175 109.885 19.7429C110.165 20.1683 110.305 20.6507 110.305 21.1902C110.305 21.8231 110.134 22.3523 109.791 22.7777C109.459 23.203 109.013 23.5039 108.453 23.6803ZM104.469 22.871H106.461C106.979 22.871 107.379 22.7569 107.659 22.5287C107.939 22.29 108.079 21.9528 108.079 21.5171C108.079 21.0813 107.939 20.7441 107.659 20.5055C107.379 20.2668 106.979 20.1475 106.461 20.1475H104.469V22.871ZM106.663 27.4777C107.192 27.4777 107.602 27.3532 107.893 27.1042C108.193 26.8551 108.344 26.5024 108.344 26.0459C108.344 25.579 108.188 25.2159 107.877 24.9565C107.566 24.6867 107.145 24.5518 106.616 24.5518H104.469V27.4777H106.663ZM116.119 29.3919C115.289 29.3919 114.542 29.2103 113.878 28.8472C113.214 28.4737 112.69 27.9497 112.306 27.2753C111.932 26.6009 111.746 25.8228 111.746 24.9409C111.746 24.059 111.937 23.2809 112.321 22.6065C112.716 21.9321 113.25 21.4133 113.924 21.0502C114.599 20.6767 115.351 20.4899 116.181 20.4899C117.011 20.4899 117.763 20.6767 118.438 21.0502C119.112 21.4133 119.641 21.9321 120.025 22.6065C120.419 23.2809 120.616 24.059 120.616 24.9409C120.616 25.8228 120.414 26.6009 120.009 27.2753C119.615 27.9497 119.076 28.4737 118.391 28.8472C117.717 29.2103 116.959 29.3919 116.119 29.3919ZM116.119 27.4932C116.513 27.4932 116.881 27.3998 117.224 27.2131C117.576 27.016 117.857 26.7255 118.064 26.3416C118.272 25.9577 118.375 25.4908 118.375 24.9409C118.375 24.1213 118.157 23.4936 117.722 23.0578C117.296 22.6117 116.772 22.3886 116.15 22.3886C115.527 22.3886 115.003 22.6117 114.578 23.0578C114.163 23.4936 113.955 24.1213 113.955 24.9409C113.955 25.7606 114.158 26.3934 114.562 26.8396C114.977 27.2753 115.496 27.4932 116.119 27.4932ZM126.977 29.2518L125.203 26.575L123.631 29.2518H121.296L124.113 24.9253L121.265 20.63H123.724L125.483 23.2912L127.07 20.63H129.405L126.572 24.9253L129.436 29.2518H126.977Z" fill="#FF2626"/>
</svg>
