<svg width="40" height="40" viewBox="0 0 40 40" fill="none" xmlns="http://www.w3.org/2000/svg">
<rect x="0.96875" y="0.798218" width="38.9072" height="38.9072" rx="19.4536" fill="#171717"/>
<path fill-rule="evenodd" clip-rule="evenodd" d="M14.0977 19.8544C14.0977 16.5822 16.7503 13.9296 20.0225 13.9296C23.2947 13.9296 25.9474 16.5822 25.9474 19.8544C25.9474 23.1266 23.2947 25.7793 20.0225 25.7793C16.7503 25.7793 14.0977 23.1266 14.0977 19.8544ZM20.0225 12.4706C15.9445 12.4706 12.6387 15.7764 12.6387 19.8544C12.6387 23.9324 15.9445 27.2383 20.0225 27.2383C21.7107 27.2383 23.2665 26.6718 24.5102 25.7185L26.7444 27.947C27.0297 28.2315 27.4916 28.2309 27.7761 27.9456C28.0606 27.6604 28.06 27.1985 27.7748 26.914L25.576 24.7209C26.7156 23.4214 27.4064 21.7186 27.4064 19.8544C27.4064 15.7764 24.1005 12.4706 20.0225 12.4706Z" fill="white"/>
</svg>
